<svg id="Layer_1" data-name="Layer 1" xmlns="http://www.w3.org/2000/svg" viewBox="0 0 24 24"><circle cx="12" cy="12" r="12" fill="#fff"/><path d="M15.07,9.37a4.31,4.31,0,1,0-6.14,0,7.84,7.84,0,0,0-4.75,7.2c0,.24,0,.48,0,.71,0,0,0,.64,1.21.64s1.21-.64,1.21-.64a5.51,5.51,0,0,1-.06-.71,5.43,5.43,0,0,1,10.86,0,5.51,5.51,0,0,1-.06.71s.1.64,1.23.64,1.19-.64,1.19-.64c0-.23,0-.47,0-.71A7.84,7.84,0,0,0,15.07,9.37ZM12,8.59a2.24,2.24,0,1,1,2.23-2.24A2.24,2.24,0,0,1,12,8.59Z" fill="#4d4d4d"/><path d="M15.41,17.07l.53-.47-.08-.22a3,3,0,0,0-.28-.69l-.1-.21-.71,0a3.51,3.51,0,0,0-.72-.72l0-.7-.2-.11a3.82,3.82,0,0,0-.67-.28L13,13.62l-.47.53a3,3,0,0,0-.52,0,2.92,2.92,0,0,0-.51,0L11,13.62l-.22.08a3.91,3.91,0,0,0-.68.28l-.2.11,0,.7a3.51,3.51,0,0,0-.72.72l-.71,0-.1.21a3.27,3.27,0,0,0-.28.67l-.08.22.53.47a2.91,2.91,0,0,0,0,1l-.53.47.08.22a3.91,3.91,0,0,0,.28.68l.1.2.71,0a3.51,3.51,0,0,0,.72.72l0,.71.2.1a3.61,3.61,0,0,0,.68.28l.22.08.47-.53A2.1,2.1,0,0,0,12,21a2.92,2.92,0,0,0,.51,0l.47.53.22-.08a3.91,3.91,0,0,0,.68-.28l.2-.1,0-.71a3.51,3.51,0,0,0,.72-.72l.71,0,.1-.2a3.82,3.82,0,0,0,.28-.67l.08-.22-.53-.47A2.91,2.91,0,0,0,15.41,17.07Zm-.75,1.07,0,.2.34.32-.1.24-.46,0-.12.17a2.77,2.77,0,0,1-.8.8l-.17.12,0,.46-.24.1-.32-.34-.21,0a2.6,2.6,0,0,1-.56.07,2.22,2.22,0,0,1-.57-.07l-.21,0-.31.34-.25-.1,0-.46-.17-.12a2.77,2.77,0,0,1-.8-.8l-.12-.17-.46,0L9,18.66l.34-.32,0-.2a2.74,2.74,0,0,1,0-1.14l0-.21L9,16.48l.1-.25.46,0,.12-.18a2.77,2.77,0,0,1,.8-.8l.17-.12,0-.46.25-.1.31.34.21,0a2.76,2.76,0,0,1,.57-.06,2.09,2.09,0,0,1,.56.06l.21,0,.32-.34.24.1,0,.46.17.12a2.77,2.77,0,0,1,.8.8l.12.18h.51c.06.12.08.2.14.31l-.39.44A2.74,2.74,0,0,1,14.66,18.14Z" fill="#00a0cc"/><path d="M12,15.66a1.91,1.91,0,1,0,1.91,1.91A1.92,1.92,0,0,0,12,15.66Zm0,2.53a.63.63,0,1,1,.63-.62A.63.63,0,0,1,12,18.19Z" fill="#00a0cc"/></svg>